<svg width="82" height="27" viewBox="0 0 82 27" fill="none" xmlns="http://www.w3.org/2000/svg">
<path d="M0.85 20L0.867 8.1H5.406C5.984 8.1 6.49967 8.26433 6.953 8.593C7.40633 8.91033 7.76333 9.33533 8.024 9.868C8.28467 10.3893 8.415 10.9503 8.415 11.551C8.415 11.9703 8.33 12.384 8.16 12.792C8.00133 13.1887 7.78033 13.557 7.497 13.897C7.225 14.2257 6.902 14.492 6.528 14.696C6.16533 14.8887 5.77433 14.985 5.355 14.985H2.193V20H0.85ZM2.193 13.676H5.321C5.63833 13.676 5.92733 13.574 6.188 13.37C6.46 13.1547 6.67533 12.8827 6.834 12.554C7.004 12.2253 7.089 11.891 7.089 11.551C7.089 11.1657 7.00967 10.8143 6.851 10.497C6.70367 10.1683 6.49967 9.90767 6.239 9.715C5.97833 9.52233 5.68933 9.426 5.372 9.426H2.193V13.676ZM11.2907 20H9.94766V8.1H11.2907V20ZM15.6037 20.085C14.8104 20.0623 14.1474 19.8413 13.6147 19.422C13.0821 18.9913 12.8157 18.368 12.8157 17.552C12.8157 16.702 13.0651 16.039 13.5637 15.563C14.0624 15.0757 14.7424 14.764 15.6037 14.628C16.4651 14.492 17.4284 14.5203 18.4937 14.713V14.101C18.4937 13.7043 18.3691 13.3927 18.1197 13.166C17.8704 12.928 17.5474 12.7693 17.1507 12.69C16.7654 12.6107 16.3574 12.605 15.9267 12.673C15.5074 12.7297 15.1107 12.86 14.7367 13.064C14.3627 13.2567 14.0737 13.5117 13.8697 13.829L13.0367 12.945C13.3881 12.5143 13.8131 12.18 14.3117 11.942C14.8217 11.704 15.3487 11.551 15.8927 11.483C16.4367 11.415 16.9637 11.432 17.4737 11.534C17.9837 11.636 18.4314 11.823 18.8167 12.095C19.1907 12.3217 19.4457 12.6163 19.5817 12.979C19.7291 13.3303 19.8141 13.7383 19.8367 14.203C19.8594 14.6677 19.8707 15.1663 19.8707 15.699V20H18.5107V19.201C18.0914 19.507 17.6267 19.7337 17.1167 19.881C16.6067 20.0283 16.1024 20.0963 15.6037 20.085ZM18.4767 17.994V15.767C17.1281 15.597 16.0571 15.6423 15.2637 15.903C14.4704 16.1637 14.0737 16.7077 14.0737 17.535C14.0737 17.8977 14.1757 18.181 14.3797 18.385C14.5951 18.589 14.8671 18.725 15.1957 18.793C15.5357 18.861 15.9041 18.8723 16.3007 18.827C16.6974 18.7817 17.0884 18.6853 17.4737 18.538C17.8591 18.3907 18.1934 18.2093 18.4767 17.994ZM21.9591 22.924V21.598C22.2878 21.598 22.5938 21.5243 22.8771 21.377C23.1604 21.241 23.3984 21.054 23.5911 20.816C23.7838 20.5893 23.8971 20.3343 23.9311 20.051L20.7181 11.5H22.1971L24.7471 18.419L27.1441 11.5H28.6401L25.6481 19.507C25.3988 20.2097 25.1211 20.8103 24.8151 21.309C24.5091 21.819 24.1294 22.21 23.6761 22.482C23.2341 22.7653 22.6618 22.9127 21.9591 22.924ZM30.1684 20V8.1H34.6224C35.2117 8.1 35.7274 8.24167 36.1694 8.525C36.6227 8.80833 36.974 9.19367 37.2234 9.681C37.484 10.157 37.6144 10.6897 37.6144 11.279C37.6144 11.7437 37.535 12.163 37.3764 12.537C37.2177 12.911 36.9684 13.3077 36.6284 13.727C37.1724 14.0897 37.569 14.5147 37.8184 15.002C38.079 15.478 38.2094 15.9937 38.2094 16.549C38.2094 16.9683 38.13 17.3877 37.9714 17.807C37.8127 18.215 37.5917 18.5833 37.3084 18.912C37.025 19.2407 36.6964 19.507 36.3224 19.711C35.9597 19.9037 35.5744 20 35.1664 20H30.1684ZM31.5284 13.404H34.5714C34.8774 13.404 35.155 13.302 35.4044 13.098C35.6537 12.8827 35.852 12.6163 35.9994 12.299C36.158 11.9703 36.2374 11.6303 36.2374 11.279C36.2374 10.7803 36.09 10.3553 35.7954 10.004C35.512 9.64133 35.121 9.46 34.6224 9.46H31.5284V13.404ZM31.5284 18.64H35.1664C35.4837 18.64 35.767 18.5323 36.0164 18.317C36.2657 18.1017 36.464 17.8353 36.6114 17.518C36.7587 17.2007 36.8324 16.8777 36.8324 16.549C36.8324 16.0503 36.685 15.6197 36.3904 15.257C36.0957 14.883 35.7047 14.696 35.2174 14.696H31.5284V18.64ZM41.0905 20H39.7475V8.1H41.0905V20ZM45.4035 20.085C44.6102 20.0623 43.9472 19.8413 43.4145 19.422C42.8819 18.9913 42.6155 18.368 42.6155 17.552C42.6155 16.702 42.8649 16.039 43.3635 15.563C43.8622 15.0757 44.5422 14.764 45.4035 14.628C46.2649 14.492 47.2282 14.5203 48.2935 14.713V14.101C48.2935 13.7043 48.1689 13.3927 47.9195 13.166C47.6702 12.928 47.3472 12.7693 46.9505 12.69C46.5652 12.6107 46.1572 12.605 45.7265 12.673C45.3072 12.7297 44.9105 12.86 44.5365 13.064C44.1625 13.2567 43.8735 13.5117 43.6695 13.829L42.8365 12.945C43.1879 12.5143 43.6129 12.18 44.1115 11.942C44.6215 11.704 45.1485 11.551 45.6925 11.483C46.2365 11.415 46.7635 11.432 47.2735 11.534C47.7835 11.636 48.2312 11.823 48.6165 12.095C48.9905 12.3217 49.2455 12.6163 49.3815 12.979C49.5289 13.3303 49.6139 13.7383 49.6365 14.203C49.6592 14.6677 49.6705 15.1663 49.6705 15.699V20H48.3105V19.201C47.8912 19.507 47.4265 19.7337 46.9165 19.881C46.4065 20.0283 45.9022 20.0963 45.4035 20.085ZM48.2765 17.994V15.767C46.9279 15.597 45.8569 15.6423 45.0635 15.903C44.2702 16.1637 43.8735 16.7077 43.8735 17.535C43.8735 17.8977 43.9755 18.181 44.1795 18.385C44.3949 18.589 44.6669 18.725 44.9955 18.793C45.3355 18.861 45.7039 18.8723 46.1005 18.827C46.4972 18.7817 46.8882 18.6853 47.2735 18.538C47.6589 18.3907 47.9932 18.2093 48.2765 17.994ZM58.2026 18.895C57.6132 19.4277 56.9956 19.7847 56.3496 19.966C55.7036 20.1473 55.0746 20.1757 54.4626 20.051C53.8619 19.9377 53.3122 19.6883 52.8136 19.303C52.3262 18.9063 51.9352 18.4077 51.6406 17.807C51.3459 17.195 51.1986 16.4923 51.1986 15.699C51.1986 14.9057 51.3402 14.2143 51.6236 13.625C51.9182 13.0243 52.3092 12.5427 52.7966 12.18C53.2952 11.8173 53.8506 11.585 54.4626 11.483C55.0746 11.381 55.7036 11.4263 56.3496 11.619C57.0069 11.8003 57.6302 12.146 58.2196 12.656L57.3696 13.625C56.8709 13.1943 56.3382 12.9337 55.7716 12.843C55.2162 12.741 54.6949 12.7977 54.2076 13.013C53.7202 13.217 53.3236 13.5513 53.0176 14.016C52.7116 14.4693 52.5586 15.0303 52.5586 15.699C52.5586 16.413 52.7116 17.0193 53.0176 17.518C53.3349 18.0053 53.7429 18.3623 54.2416 18.589C54.7402 18.8043 55.2672 18.861 55.8226 18.759C56.3892 18.657 56.9162 18.3623 57.4036 17.875L58.2026 18.895ZM59.7523 20V8.1H61.1123V14.339L63.9343 11.619H65.8043L62.3023 15.087L65.9743 20H64.4103L61.2653 16.005L61.1123 16.277V20H59.7523Z" fill="url(#paint0_linear_34107_583)"/>
<defs>
<linearGradient id="paint0_linear_34107_583" x1="0" y1="13.5" x2="82" y2="13.5" gradientUnits="userSpaceOnUse">
<stop stop-color="#505050"/>
<stop offset="0.25" stop-color="#717171"/>
<stop offset="0.5" stop-color="#D1D1D1"/>
<stop offset="0.75" stop-color="#717171"/>
<stop offset="1" stop-color="#505050"/>
</linearGradient>
</defs>
</svg>
